<?xml version="1.0" standalone="no"?><!DOCTYPE svg PUBLIC "-//W3C//DTD SVG 1.1//EN" "http://www.w3.org/Graphics/SVG/1.1/DTD/svg11.dtd"><svg t="1558426399659" class="icon" style="" viewBox="0 0 1024 1024" version="1.1" xmlns="http://www.w3.org/2000/svg" p-id="1687" xmlns:xlink="http://www.w3.org/1999/xlink" width="200" height="200"><defs><style type="text/css"></style></defs><path d="M102.381 219.559l3.619 0.052V198h814v32.135l-5.426 2.397 4.083 0.069c2.47-2.782 5.342-5.883 8.342-9.515v-26.327c0-1.561 0.1-2.758-0.208-3.758H97.931c-0.308 1-0.931 2.197-0.931 3.758v15.236c2 2.281 3.805 4.836 5.381 7.564zM926.741 704c0.331-1 0.259-2.282 0.259-3.92V272.316l-0.581 0.791-1.869 1.116-387.643 219.333c-6.287 5.659-13.822 9.423-21.504 10.681a34.968 34.968 0 0 1-5.658 0.468c-7.227 0-14.092-2.321-19.364-6.684L97 270.41v429.67c0 1.638 0.651 2.92 0.982 3.92h828.759z" fill="#FF9702" p-id="1688"></path><path d="M929.084 160H95.639C77.897 160 64 176.146 64 196.758V700.08C64 720.783 77.897 737 95.639 737h833.444C946.826 737 961 720.783 961 700.08V196.758C961 176.146 946.826 160 929.084 160z m11.882 72.954zM97.931 193h828.86c0.308 1 0.208 2.197 0.208 3.758v26.327c-3 3.632-5.891 6.733-8.361 9.515-0.413 0.465-0.714 0.922-1.112 1.371-4.026 4.539-7.248 8.23-11.334 12.401L518.776 465.564l-1.96 1.116-1.596 1.603c-1.831 1.832-3.525 2.629-4.556 2.942l-0.082-0.084-396.883-229.722c-1.416-2.336-3.53-6.635-5.025-9.674-0.446-0.906-0.704-1.805-1.147-2.699l-1.527-0.772v-2.639c-1-2.095-2.494-4.129-3.619-6.077-1.576-2.727-3.381-5.283-5.381-7.564v-15.236c0-1.561 0.623-2.758 0.931-3.758zM97 270.41l393.387 227.61c5.272 4.363 12.068 6.684 19.294 6.684 1.862 0 3.796-0.154 5.709-0.468 7.682-1.257 15.262-5.022 21.549-10.681l387.705-219.334 1.769-1.116 0.586-0.791V700.08c0 1.638 0.072 2.92-0.259 3.92H97.982c-0.331-1-0.982-2.282-0.982-3.92V270.41z" fill="" p-id="1689"></path><path d="M512.361 411.449L107.343 229.045c0.443 0.895 0.887 1.793 1.332 2.699 1.494 3.039 3.609 7.338 5.025 9.674L510.583 471.14l0.084 0.084c1.031-0.313 2.728-1.11 4.559-2.942l1.603-1.603 1.973-1.116 387.443-219.192c4.086-4.171 7.36-7.862 11.387-12.401l1.216-1.371-4.311-0.069-402.176 178.919zM102.718 219.559c1.126 1.948 2.282 3.982 3.282 6.077v-6.025l-3.282-0.052zM940.966 232.954z" fill="#FFFFFF" p-id="1690"></path><path d="M914.574 232.532l5.426-2.397V198H106v30.274l1.527 0.771 404.946 182.404z" fill="#F9F455" p-id="1691"></path></svg>