<?xml version="1.0" standalone="no"?><!DOCTYPE svg PUBLIC "-//W3C//DTD SVG 1.1//EN" "http://www.w3.org/Graphics/SVG/1.1/DTD/svg11.dtd"><svg t="1558428547556" class="icon" style="" viewBox="0 0 1024 1024" version="1.1" xmlns="http://www.w3.org/2000/svg" p-id="3491" xmlns:xlink="http://www.w3.org/1999/xlink" width="200" height="200"><defs><style type="text/css"></style></defs><path d="M657.461 815.684c0 78.658-63.766 142.423-142.422 142.423-78.658 0-142.422-63.766-142.422-142.423h284.844z" fill="#883333" p-id="3492" data-spm-anchor-id="a313x.7781069.0.i10" class="selected"></path><path d="M372.616 815.684c0 14.387-1.459 13.388 2.509 26.483l227.197 28.655c0 34.123-12.029 51.635-32.038 76.163 51.217-21.579 87.176-72.235 87.176-131.301H372.616z" fill="#070707" p-id="3493"></path><path d="M767.422 675.449c-0.4-2.213-0.561-4.378-0.561-6.627V395.991c0-120.595-108.628-219.656-248.359-233.069h-6.928c-139.731 13.413-248.359 112.474-248.359 233.069v272.831c0 2.249-0.161 4.414-0.56 6.627-2.145 11.893-11.533 51.254-46.16 87.517-23.51 24.621-5.524 65.513 28.518 65.513h540.051c34.042 0 52.027-40.892 28.518-65.513-34.628-36.263-44.017-75.624-46.16-87.517z" fill="#FCB814" p-id="3494"></path><path d="M308.416 528.618c-8.247 0-14.933-6.687-14.933-14.934v-99.795c0-69.671 40.92-134.276 109.456-172.819 7.196-4.054 16.297-1.487 20.336 5.694 4.047 7.19 1.495 16.297-5.695 20.338-59.003 33.183-94.229 88.053-94.229 146.787v99.795c-0.001 8.246-6.689 14.934-14.935 14.934z" fill="#EEEEEE" p-id="3495"></path><path d="M813.581 762.966c-34.626-36.263-44.016-75.624-46.159-87.514-0.399-2.215-0.561-4.381-0.561-6.63V395.99c0-120.594-108.628-219.654-248.359-233.066h-6.928c-18.213 1.747-35.86 5.022-52.845 9.538h4.391c129.939 12.472 230.953 104.589 230.953 216.734v253.707c0 2.093 0.151 4.105 0.523 6.166 1.992 11.058 10.723 47.66 42.924 81.381 21.862 22.899 5.137 60.92-26.52 60.92H208.8c-0.969 0-1.88-0.142-2.821-0.209 1.018 19.308 16.448 37.32 39.034 37.32h540.051c34.041-0.001 52.027-40.894 28.517-65.515z" fill="#020201" p-id="3496"></path><path d="M515.038 112.515m-50.408 0a50.408 50.408 0 1 0 100.816 0 50.408 50.408 0 1 0-100.816 0Z" fill="#152B3C" p-id="3497"></path><path d="M543.111 70.656a50.168 50.168 0 0 1 8.55 28.074c0 27.842-22.569 50.409-50.408 50.409a50.13 50.13 0 0 1-28.074-8.551c9.049 13.468 24.414 22.336 41.859 22.336 27.839 0 50.407-22.569 50.407-50.41 0.001-17.443-8.867-32.809-22.334-41.858z" fill="#070707" p-id="3498"></path></svg>