<?xml version="1.0" standalone="no"?><!DOCTYPE svg PUBLIC "-//W3C//DTD SVG 1.1//EN" "http://www.w3.org/Graphics/SVG/1.1/DTD/svg11.dtd"><svg t="1558426773562" class="icon" style="" viewBox="0 0 1024 1024" version="1.1" xmlns="http://www.w3.org/2000/svg" p-id="1811" xmlns:xlink="http://www.w3.org/1999/xlink" width="200" height="200"><defs><style type="text/css"></style></defs><path d="M97 525v340.999c0 1.636 0.585 3.001 0.916 4.001h827.508c0.331-1 0.576-2.365 0.576-4.001V525H97z" fill="#FF9702" p-id="1812"></path><path d="M959 470.475v-20.72c0-5.251 0.17-32.957-19.104-48.004l-0.388-0.373C933.09 396.744 911 382.046 880 361.722v-12.541C880 322.134 857.541 300 830.495 300h-45.447c-115.635-75-254.81-164.868-264.364-171.032l-8.874-5.693-8.955 5.614c-0.968 0.605-97.955 61.193-196.539 124.105C278.38 270.823 254.105 286 232.993 300h-50.956C154.991 300 133 322.134 133 349.181v16.828c-37 25.047-41.349 29.948-43.746 32.516C62.759 426.913 64 470.922 64 476.786v389.213C64 886.671 77.861 903 95.576 903h832.187C945.478 903 959 886.671 959 865.999V478.995v-8.52zM925.424 870H97.916c-0.331-1-0.916-2.365-0.916-4.001V525h829v340.999c0 1.636-0.245 3.001-0.576 4.001zM133 406.408V492H97v-15.622l0.09-0.996c-0.021-0.345-1.5-34.981 16.401-54.16 1.482-1.555 6.509-5.397 19.509-14.814zM182.037 333h648.457c8.71 0 15.505 7.471 15.505 16.181V499h-56.247c-0.112-13-10.579-23-23.481-23H269.537c-12.901 0-23.368 10-23.481 23H166V349.181c0-8.71 7.327-16.181 16.037-16.181z m329.497-170.359C540.222 181.161 633.576 242 723.958 300H294.449c9.564-6 19.624-12.531 30.217-19.291 80.921-51.638 160.672-101.655 186.868-118.068zM925.16 448.43l-0.16 0.347V492h-45v-90.509c20 13.419 34.424 22.96 39.538 26.62 4.908 4.087 5.824 15.568 5.622 20.319z" fill="" p-id="1813"></path><path d="M723.958 300c-90.383-58-183.736-118.839-212.425-137.359-26.195 16.412-105.946 66.43-186.867 118.068-10.593 6.76-20.653 13.291-30.217 19.291h429.509zM880 492h45v-43.223l0.16-0.347c0.202-4.751-0.715-16.232-5.622-20.319-5.114-3.66-19.538-13.201-39.538-26.62V492zM97.09 475.382l-0.09 0.996V492h36v-85.592c-13 9.417-18.027 13.259-19.509 14.814-17.901 19.18-16.422 53.816-16.401 54.16z" fill="#F9F455" p-id="1814"></path><path d="M166 499h80.057c0.112-13 10.579-23 23.481-23h496.735c12.901 0 23.368 10 23.481 23H846V349.181c0-8.71-6.796-16.181-15.505-16.181H182.037c-8.71 0-16.037 7.471-16.037 16.181V499z m624-82.486C790 429.485 779.485 440 766.514 440H269.486C256.515 440 246 429.485 246 416.514v-0.028C246 403.515 256.515 393 269.486 393h497.028C779.485 393 790 403.515 790 416.486v0.028z" fill="#FFFFFF" p-id="1815"></path><path d="M790 416.486C790 403.515 779.485 393 766.514 393H269.486C256.515 393 246 403.515 246 416.486v0.028C246 429.485 256.515 440 269.486 440h497.028C779.485 440 790 429.485 790 416.514v-0.028z" fill="" p-id="1816"></path></svg>